<?xml version="1.0" encoding="UTF-8"?>
<svg width="38px" height="29px" viewBox="0 0 38 29" version="1.1" xmlns="http://www.w3.org/2000/svg" xmlns:xlink="http://www.w3.org/1999/xlink">
    <!-- Generator: Sketch 52.5 (67469) - http://www.bohemiancoding.com/sketch -->
    <title>Group 30</title>
    <desc>Created with Sketch.</desc>
    <defs>
        <polygon id="path-1" points="0.000447058824 0.718666667 37.4612941 0.718666667 37.4612941 21.48564 0.000447058824 21.48564"></polygon>
    </defs>
    <g id="Page-3" stroke="none" stroke-width="1" fill="none" fill-rule="evenodd">
        <g id="Activiteiten-Copy-3" transform="translate(-1275.000000, -74.000000)">
            <g id="Group-30" transform="translate(1275.000000, 73.000000)">
                <path d="M12,10.2408745 C12.2296552,10.3378745 12.6255172,10.3468745 13,10.3628745 C12.7117241,10.2708745 12.4048276,10.2298745 12,10.2408745" id="Fill-1" fill="#8A79DF"></path>
                <polygon id="Fill-3" fill="#8A79DF" points="12.5015 10.3020014 12.5095 10.3010014 12.4905 10.3000014"></polygon>
                <path d="M0.2765,4.30503347 C0.4125,4.30303347 0.5675,4.30103347 0.7235,4.29903347 C0.5745,4.29603347 0.4215,4.29503347 0.2765,4.30503347" id="Fill-5" fill="#8A79DF"></path>
                <g id="Group-9" transform="translate(0.000000, 0.801001)">
                    <mask id="mask-2" fill="white">
                        <use xlink:href="#path-1"></use>
                    </mask>
                    <g id="Clip-8"></g>
                    <path d="M32.3384471,8.83637333 L32.4002902,8.71904 C32.8667216,8.71830667 32.9799765,8.75204 32.9814667,8.78210667 C32.9851922,8.81217333 32.9822118,8.83857333 33.0008392,8.82464 C33.0343686,8.74177333 33.0746039,8.74544 33.0872706,8.76010667 C33.1044078,8.77404 33.0895059,8.79750667 33.1595451,8.75350667 C33.151349,8.75937333 33.1520941,8.76304 33.1476235,8.77037333 C33.1312314,8.78724 33.1088784,8.80630667 33.067898,8.83197333 C33.1908392,8.76157333 33.0887608,8.83710667 33.1148392,8.83417333 C33.143898,8.82830667 33.1498588,8.81730667 33.1871137,8.79457333 C33.1938196,8.80630667 33.1997804,8.82170667 33.2049961,8.84077333 C33.1617804,8.87304 33.1036627,8.87597333 33.097702,8.86497333 C33.090251,8.87524 33.0790745,8.88990667 33.0664078,8.90897333 C32.9509176,9.21330667 32.8130745,9.57777333 32.6610745,9.98184 C32.3175843,10.90364 31.9062902,12.0073067 31.494251,13.11464 C31.0859373,14.2249067 30.6776235,15.3373733 30.3333882,16.2753067 C30.164251,16.7453733 30.0107608,17.17144 29.8811137,17.5315067 C29.8177804,17.7119067 29.7604078,17.87544 29.7097412,18.0199067 C29.6881333,18.0829733 29.6680157,18.14164 29.6493882,18.19664 L29.6523686,18.2003067 C29.6687608,18.2039733 29.6754667,18.21644 29.6881333,18.20104 C29.7231529,18.11964 29.7596627,18.0353067 29.7961725,17.9487733 C29.8699373,17.7749733 29.9481725,17.6055733 30.0338588,17.5271067 C29.9846824,17.75444 29.9220941,17.9121067 29.8699373,18.0397067 C29.8460941,18.1049733 29.8252314,18.1599733 29.8051137,18.2135067 C29.784251,18.27804 29.8043686,18.24284 29.8118196,18.2677733 C29.6873882,18.2259733 29.7253882,18.28904 29.6724863,18.25164 C29.6583294,18.2377067 29.6434275,18.2179067 29.6262902,18.18784 C29.6434275,18.2179067 29.6583294,18.2479733 29.6717412,18.27804 C29.6583294,18.2597067 29.647898,18.2413733 29.6389569,18.22304 C29.6382118,18.23404 29.6329961,18.2443067 29.6277804,18.25164 C29.487702,18.2597067 29.3856235,18.26484 29.3103686,18.26924 C29.1412314,18.2773067 29.0898196,18.2795067 29.0458588,18.27804 C28.9571922,18.2751067 28.8983294,18.25824 27.9870745,18.24724 C26.9312706,18.2611733 26.4298196,18.38584 25.8434275,18.3403733 C25.9306039,18.3411067 26.1630745,18.3961067 25.8896235,18.41884 C25.8434275,18.3403733 25.1624078,18.47604 25.0290353,18.3961067 C24.7615451,18.4063733 23.894251,18.3961067 24.1878196,18.5039067 C24.0402902,18.44964 23.2661333,18.4283733 23.7266039,18.38144 C23.4658196,18.3777733 23.2132314,18.36164 23.0247216,18.38584 L23.3600157,18.4159067 C22.4785647,18.4313067 21.9987216,18.34844 21.424251,18.4459733 L21.7498588,18.48924 C21.2230745,18.49584 20.7819765,18.5039067 20.5748392,18.39684 L21.1157804,18.36384 C20.2417804,18.3667733 19.7149961,18.3733733 18.9862902,18.4305733 L19.2463294,18.4335067 C19.0064078,18.4613733 18.505702,18.4877733 17.8790745,18.51344 C17.5668784,18.5259067 17.2256235,18.5391067 16.8694667,18.55304 C16.7867608,18.56624 16.7010745,18.57944 16.6161333,18.5933733 C16.5691922,18.52884 16.522251,18.4657733 16.4775451,18.4049067 C16.3300157,18.14384 16.1899373,17.8959733 16.0617804,17.6693733 C15.7868392,17.1853733 15.5648,16.8091733 15.443349,16.64124 L15.5424471,17.0255067 L15.1527608,16.4073067 C15.1900157,16.48504 15.5558588,16.6009067 15.5633098,16.6771733 C14.8584471,15.29044 11.1664863,8.08544 10.5726431,6.77570667 C10.3543294,6.23744 10.6464078,6.62390667 10.6605647,6.62390667 C10.3155843,6.00790667 10.4437412,6.39144 10.1814667,5.85244 C10.1218588,5.69917333 10.2559765,5.85390667 10.3081333,5.93090667 C10.1814667,5.69990667 10.0980157,5.46964 10.0533098,5.46817333 C10.1732706,5.77544 10.0168,5.69697333 10.0190353,5.85097333 L9.68076078,5.15724 L9.75527059,5.15870667 C9.68001569,5.00397333 9.39687843,4.84850667 9.08915294,4.15477333 C8.87381961,3.71550667 8.65327059,3.26450667 8.43048627,2.81057333 C8.09817255,2.14837333 7.76362353,1.48250667 7.43578039,0.829106667 C6.89707451,0.826906667 6.37997647,0.82544 5.87181961,0.82324 C5.90683922,0.784373333 6.36581961,0.76164 6.83895686,0.738906667 C6.54389804,0.736706667 6.09385882,0.74624 5.82338824,0.718373333 C6.08715294,0.75284 5.85244706,0.764573333 5.61178039,0.77044 C5.46648627,0.777773333 5.31299608,0.77924 5.43593725,0.793173333 C4.48146667,0.952306667 3.24683922,0.807106667 2.40487843,0.914906667 C2.33185882,1.05864 0.601741176,3.37157333 0.601741176,3.54170667 C0.340211765,3.53877333 0.080172549,3.53584 0.000447058824,3.52190667 C0.0675058824,3.56224 0.581623529,3.58057333 0.854329412,3.55784 L0.902015686,3.46690667 C1.53013333,3.43464 1.0488,3.52117333 1.66276078,3.51457333 C1.6955451,3.58937333 1.13076078,3.60550667 0.633035294,3.61210667 C1.08083922,3.62090667 1.52640784,3.67517333 1.70970196,3.59377333 C2.12993725,3.62530667 1.66276078,3.68544 2.16942745,3.71697333 C2.5300549,3.69497333 3.00393725,3.62237333 3.41895686,3.66637333 L3.41150588,3.67957333 C3.91593725,3.71770667 4.30115294,3.68910667 4.67593725,3.66124 C4.86295686,3.64657333 5.04774118,3.63264 5.24370196,3.62677333 C5.3420549,3.62677333 5.44040784,3.62604 5.54621176,3.62530667 C5.61774118,3.62677333 5.62146667,3.62824 5.61774118,3.63117333 L5.62370196,3.64217333 L5.61774118,3.66710667 C5.61923137,3.69570667 5.62519216,3.68030667 5.63636863,3.67957333 C5.63860392,3.68250667 5.63860392,3.69057333 5.62742745,3.70377333 C5.63934902,3.69424 5.67362353,3.64070667 5.68927059,3.65170667 C5.6848,3.66930667 5.68032941,3.67297333 5.6833098,3.68690667 C5.74738824,3.81670667 5.80625098,3.93697333 5.86213333,4.05284 C5.97687843,4.28384 6.08044706,4.49577333 6.16315294,4.72677333 L6.43958431,5.11177333 C7.49687843,7.17830667 11.6731529,15.3439733 12.7349176,17.4193067 L12.6835059,17.34304 C13.2468,18.4511067 13.9747608,19.8825733 14.7906431,21.48564 C16.9357804,21.47464 19.3476627,21.4629067 21.6172314,21.4519067 C23.5634275,21.4365067 25.3844471,21.4137733 26.7278588,21.37784 C27.3030745,21.4497067 28.0966039,21.43284 28.6964078,21.45264 C28.3626039,21.4233067 28.477349,21.3719733 28.7373882,21.3749067 C29.1948784,21.3719733 29.4288392,21.3705067 29.5577412,21.3697733 C29.6374667,21.3653733 29.6836627,21.3631733 29.7186824,21.3609733 C29.7581725,21.3573067 29.7730745,21.35364 29.7879765,21.34924 C29.845349,21.3323733 29.9161333,21.30964 31.5382118,21.29424 C31.6179373,21.2935067 31.7021333,21.29204 31.8526431,21.28984 C32.1126824,20.55284 32.5262118,19.38244 33.0164863,17.99644 C33.3838196,16.9903067 33.8077804,15.82944 34.2272706,14.68104 C35.1675843,12.1767067 36.0870353,9.72810667 36.4424471,8.78210667 C36.7173882,7.84344 37.0891922,6.80724 37.4617412,5.77177333 C36.5698588,5.77250667 35.6854275,5.77324 34.8911529,5.80330667 L35.0841333,5.77837333 C34.655702,5.77984 33.7496627,5.78277333 32.5895451,5.78644 C31.8533882,5.78130667 30.9577804,5.77470667 30.057702,5.76884 C28.2568,5.75344 26.4350353,5.73877333 25.8136235,5.75784 L25.9805255,5.77250667 C24.897898,5.83850667 25.0454275,5.72264 24.1922902,5.68670667 C24.3048,5.80550667 23.3771529,5.87297333 23.0232314,5.88177333 L23.0366431,5.85610667 C22.5031529,5.87590667 21.2938588,5.97930667 20.4131529,5.99470667 L20.4474275,5.93017333 C19.7127608,5.99984 18.3306039,5.97124 17.8023294,5.97784 C16.5945255,5.95070667 14.7325255,5.83777333 13.1171529,5.92357333 L12.0732706,5.73804 L11.9212706,5.75637333 C11.9212706,5.75637333 10.2403294,7.99524 12.3735451,8.47190667 L12.3392706,8.53717333 L12.7617412,8.52837333 C13.2676627,8.56064 13.5016235,8.48510667 13.467349,8.54964 L12.7736627,8.54230667 C13.2818196,8.56137333 12.9271529,8.59510667 12.7334275,8.63250667 C12.9457804,8.63837333 13.1514275,8.64644 13.3205647,8.66624 C13.4204078,8.64130667 13.2468,8.63910667 13.1678196,8.62517333 C13.4412706,8.60244 13.8220157,8.54157333 14.1550745,8.57090667 C14.675898,8.57677333 14.1886039,8.67650667 14.7958588,8.68310667 C17.9997804,8.73370667 21.1038588,8.80850667 24.3420549,8.79384 C24.4158196,8.82097333 24.327898,8.82024 24.2347608,8.83197333 C25.2168,8.81510667 26.0684471,8.80044 26.9655451,8.78504 C27.2121725,8.81437333 27.2792314,8.85397333 27.3529961,8.88184 C27.2792314,8.85397333 28.5056627,8.83930667 29.7604078,8.83344 C30.3877804,8.83197333 31.0218588,8.83124 31.5046824,8.82977333 C31.9867608,8.83417333 32.3116235,8.83637333 32.3384471,8.83637333" id="Fill-7" fill="#8A79DF" mask="url(#mask-2)"></path>
                </g>
                <path d="M20,27.8013805 C20,28.9062146 19.104455,29.8010014 17.9996209,29.8010014 C16.895545,29.8010014 16,28.9062146 16,27.8013805 C16,26.6965464 16.895545,25.8010014 17.9996209,25.8010014 C19.104455,25.8010014 20,26.6965464 20,27.8013805" id="Fill-10" fill="#7B68DB"></path>
                <path d="M18.561594,27.2765014 C18.462594,27.2885014 18.453594,27.3075014 18.437594,27.3255014 C18.530594,27.3205014 18.568594,27.3015014 18.561594,27.2765014" id="Fill-12" fill="#8A79DF"></path>
                <polygon id="Fill-14" fill="#8A79DF" points="18.499 27.3010014 18.5 27.3010014 18.501 27.3010014"></polygon>
                <path d="M22.5056495,27.3645014 C22.5026495,27.3255014 22.4986495,27.2825014 22.4946495,27.2375014 C22.4936495,27.2805014 22.4946495,27.3235014 22.5056495,27.3645014" id="Fill-16" fill="#8A79DF"></path>
                <path d="M17.8652989,26.6456817 L17.8536939,26.7665785 C17.8238525,26.7680897 17.8619832,26.6267916 17.8387732,26.6555046 C17.7931821,26.8255157 17.8122474,26.6290584 17.7790902,26.7189754 C17.7840638,26.7061301 17.7766035,26.6955517 17.7964978,26.6464373 C17.7600249,26.7325763 17.7790902,26.6630606 17.7633406,26.6849732 C17.7500777,26.7083969 17.7533934,26.7106638 17.7442752,26.7371099 C17.7326702,26.7476884 17.723552,26.752222 17.7127759,26.7590225 C17.7194073,26.7287983 17.7451041,26.679684 17.7558802,26.6736391 C17.7094602,26.6275472 17.7019998,26.4726482 17.6671847,26.4696258 C17.5950679,26.4907827 17.6423169,26.4885159 17.5328981,26.5262962 C17.4599523,26.5346078 17.5527925,26.503628 17.4806756,26.5157177 C17.652264,26.4726482 17.5138328,26.4786931 17.6945394,26.4454464 L17.59341,26.4567805 L17.6530929,26.4454464 C17.5494767,26.4129554 17.5950679,26.4371348 17.6257383,26.402377 C17.6099886,26.3834868 17.4732152,26.3472178 17.5287535,26.341173 C17.5287535,26.341173 17.4632681,26.3366393 17.440887,26.3237941 C17.5295824,26.3426842 17.3861776,26.2867694 17.4732152,26.3041483 C17.4649259,26.2935699 17.4881359,26.2724129 17.3687701,26.2421887 C17.428453,26.255034 17.4591234,26.2414331 17.5030567,26.2731685 C17.5096881,26.2678793 17.5312403,26.2693905 17.5088592,26.2535228 L17.4723863,26.2497448 C17.4698995,26.2142314 17.5602528,26.2482336 17.4765309,26.1779623 L17.4292819,26.165117 C17.4309398,26.1432045 17.4392291,26.1243144 17.5403585,26.1847628 L17.558595,26.2164982 C17.5743446,26.1953412 17.5743446,26.1802291 17.5478189,26.1220476 L17.5387007,26.1265812 C17.4566366,26.0275969 17.6025282,25.8220724 17.6307118,25.6830411 L17.5751736,25.6112587 C17.5834629,25.5825457 17.5925811,25.5523215 17.605015,25.5273865 C17.5958968,25.5281421 17.6671847,25.7971375 17.6564087,25.7729581 C17.6953684,25.7601128 17.8337996,25.7019312 17.9879805,25.7147765 C18.1371879,25.7200658 18.277277,25.7812698 18.2930266,25.8326509 C18.2946845,25.8862988 18.2159362,25.9482584 18.2084758,25.9603481 C18.2573827,25.9497696 18.277277,25.8938549 18.2980002,25.9172786 C18.2955134,25.9339019 18.2524091,25.9694154 18.241633,25.9769714 C18.2582116,25.9762158 18.2482644,26.0049288 18.276448,25.973949 C18.2830795,25.941458 18.3609989,25.8613639 18.3999586,25.8024267 C18.4123925,25.8137608 18.4248264,25.8243392 18.4347736,25.8386957 L18.3842089,25.8885657 C18.3883535,25.8961217 18.5408766,25.7676689 18.5541395,25.8318953 C18.5989017,25.9104782 18.6726764,25.9754602 18.6992022,26.0585767 C18.6594135,26.0752001 18.6279142,26.0706664 18.5989017,26.0668884 C18.6005595,26.0774669 18.6171381,26.0872897 18.5930992,26.1076911 C18.65444,26.060088 18.6560978,26.1160027 18.6784789,26.0910678 C18.8757642,26.0850229 18.7464511,26.214987 18.8765931,26.2444555 C18.9553414,26.2323659 19.643353,26.1477381 20.3512589,26.157561 C21.0558491,26.157561 21.7604393,26.251256 21.8574241,26.2482336 C21.8574241,26.3222828 21.8565952,26.3955765 21.8416744,26.4182447 C21.8872656,26.3993545 21.9030152,26.2520116 21.8715159,26.1756955 L21.7678997,26.1688951 C21.717335,25.998884 21.8300694,26.1235588 21.7985701,25.9527921 C21.8831209,25.9331463 21.9237385,26.092579 21.9370013,26.2353883 C21.941146,26.1076911 21.9875661,25.970171 21.8856077,25.9286127 C21.9005284,25.8031823 21.9900528,25.9301239 22,25.7767361 C21.9602114,25.6717071 21.8425034,25.5553439 21.8565952,25.4261355 L21.8715159,25.4246243 C21.8623977,25.109537 21.599627,25.0309541 21.5498912,24.7612032 L21.5896798,24.7755597 C21.5896798,24.6667526 21.4321832,24.5307437 21.3733292,24.3607326 C21.3882499,24.4113581 21.3608952,24.4763401 21.292923,24.3939792 C21.2166615,24.2035668 21.0840327,24.1257395 21.0326391,23.9768853 L20.8701689,23.923993 C20.6405554,23.6633093 19.9011501,23.1049173 18.99513,22.9114824 C18.0965703,22.6878234 17.1905502,22.8563233 16.8465444,22.95833 L16.8714123,22.9401954 C16.3367527,23.0769599 15.5500984,23.4336054 15.001347,24.0244884 C14.4327013,24.5979925 14.1516941,25.3649315 14.1342866,25.8704311 C14.0215522,26.0139961 14.0265257,26.2361439 14,26.4001101 C14.0373018,26.308682 14.093669,26.3419286 14.0870376,26.4114442 C14.1077609,26.9025874 14.1276552,26.446202 14.2229821,26.9297892 C14.2975857,27.2002957 14.4807792,27.8720284 14.9176251,28.4168196 C15.3262874,28.9797452 15.9504715,29.3635925 16.1858875,29.5011125 C16.5000518,29.5313367 16.8216765,29.7104151 17.1242358,29.7013478 L17.0894208,29.720238 C17.2452596,29.7308164 17.7517356,29.8335787 18.2756191,29.7905092 C18.8019894,29.7625518 19.3184126,29.5910295 19.4684489,29.4973345 L19.4170552,29.5026238 C19.6682209,29.3182562 19.6864574,29.4406642 19.926847,29.3522584 C19.832349,29.2661194 20.008911,29.0741958 20.0777122,29.0099694 L20.0926329,29.0333931 C20.2053673,28.9359201 20.37364,28.6503015 20.5112424,28.4757567 L20.5609781,28.5256267 C20.6388975,28.3442815 20.8709978,28.0783086 20.9331675,27.9566562 C21.1196767,27.717885 21.4354989,27.2909683 21.3948814,26.8625403 C21.4802611,26.784713 21.5581805,26.7008409 21.6319552,26.6116795 L21.6128899,26.5693656 C21.6128899,26.5693656 20.986219,26.4371348 20.2874314,26.4182447 C19.5886437,26.3887761 18.8169102,26.4431796 18.5458502,26.4681146 L18.4729044,26.4613141 C18.4753912,26.467359 18.4820226,26.4741594 18.4820226,26.4802043 C18.4397472,26.496072 18.524298,26.5179845 18.4521811,26.5058948 L18.4662729,26.4786931 C18.4397472,26.4975832 18.4049321,26.4771818 18.3659724,26.467359 C18.3560253,26.4734038 18.3460781,26.4794487 18.3228681,26.4817155 C18.3502228,26.4892715 18.3535385,26.4839823 18.3692882,26.4832267 C18.3916693,26.4945608 18.4637861,26.5232737 18.4239975,26.5293186 C18.4107346,26.5459419 18.3062895,26.5058948 18.2946845,26.5217625 C18.2076469,26.6018567 18.0907678,26.6041235 18.041032,26.6502154 C18.0236245,26.6275472 18.0252824,26.6275472 18.0203088,26.6162131 C18.0194798,26.6502154 17.9987566,26.6517266 17.9904673,26.6827064 C17.9738887,26.6570158 17.958968,26.61848 17.9490208,26.5927894 C17.9780334,26.6441705 17.8686147,26.6698611 17.8652989,26.6456817" id="Fill-18" fill="#8A79DF"></path>
                <path d="M30,26.8006222 C30,27.9054563 29.104455,28.8010014 27.9996209,28.8010014 C26.895545,28.8010014 26,27.9054563 26,26.8006222 C26,25.6957881 26.895545,24.8010014 27.9996209,24.8010014 C29.104455,24.8010014 30,25.6957881 30,26.8006222" id="Fill-20" fill="#7B68DB"></path>
                <path d="M28.561594,27.2765014 C28.462594,27.2885014 28.454594,27.3075014 28.437594,27.3255014 C28.530594,27.3205014 28.568594,27.3015014 28.561594,27.2765014" id="Fill-22" fill="#8A79DF"></path>
                <polygon id="Fill-24" fill="#8A79DF" points="28.499 27.3010014 28.5 27.3010014 28.501 27.3010014"></polygon>
                <path d="M32.506,27.3645014 C32.503,27.3255014 32.499,27.2825014 32.494,27.2375014 C32.494,27.2805014 32.495,27.3235014 32.506,27.3645014" id="Fill-26" fill="#8A79DF"></path>
                <path d="M28.8657273,26.6459135 L28.8541235,26.766056 C28.8242851,26.7675672 28.8624119,26.6270231 28.8392043,26.6557364 C28.7936179,26.8257494 28.8126813,26.62929 28.7795276,26.7192079 C28.7845006,26.7056069 28.7762122,26.6957839 28.7969333,26.6459135 C28.7604642,26.7320534 28.7795276,26.6632926 28.7637795,26.6852053 C28.7496892,26.7086293 28.7538334,26.7108962 28.7447161,26.7373426 C28.7331123,26.7479212 28.723995,26.7516993 28.7132201,26.7592554 C28.7198508,26.7290309 28.745545,26.679916 28.7563199,26.6731155 C28.7099047,26.6277787 28.7016162,26.472878 28.6676337,26.4698556 C28.5946954,26.4910128 28.6427683,26.4879903 28.533361,26.5265266 C28.4595939,26.5348383 28.5532532,26.5031026 28.4811438,26.5151924 C28.6527145,26.472878 28.5134687,26.4789229 28.6949855,26.445676 L28.5930377,26.4570102 L28.6535433,26.4449203 C28.5499378,26.412429 28.5955242,26.4373642 28.6253626,26.402606 C28.6104434,26.3837157 28.4736842,26.3466906 28.5292167,26.3414013 C28.5292167,26.3414013 28.4637381,26.3368677 28.4413593,26.3240222 C28.5292167,26.3429126 28.3866556,26.2869972 28.4736842,26.3043763 C28.4653958,26.2937977 28.4877746,26.2726405 28.3692499,26.2416604 C28.4280978,26.2545058 28.4595939,26.2409048 28.5035226,26.2733962 C28.5093245,26.2681069 28.5317033,26.2696181 28.5093245,26.2537502 L28.4728554,26.2499721 C28.4703688,26.2144583 28.5607128,26.2484609 28.4769996,26.1781889 L28.4297555,26.1653435 C28.4314132,26.1426751 28.4397016,26.1237847 28.5408206,26.1849894 L28.5590551,26.2167252 C28.5739743,26.1948124 28.5748031,26.1797001 28.5474513,26.1222735 L28.5391629,26.1268072 C28.4562785,26.0278219 28.6029838,25.8222951 28.6303357,25.6832623 L28.575632,25.611479 C28.5839204,25.5827657 28.5922089,25.5525412 28.6054704,25.5268503 C28.5955242,25.5283616 28.6676337,25.7973599 28.6568587,25.7731802 C28.6958143,25.7603348 28.8342312,25.7021526 28.9883962,25.714998 C29.1375881,25.7195317 29.2768338,25.781492 29.2925818,25.8321181 C29.2950684,25.8865222 29.2154994,25.9484825 29.2088686,25.9605723 C29.2577704,25.9499937 29.2768338,25.8940783 29.2983838,25.9167467 C29.2958972,25.9341258 29.2527973,25.968884 29.2420224,25.9771958 C29.2585993,25.9756846 29.2478243,26.0043979 29.2768338,25.9741733 C29.2834646,25.941682 29.3613759,25.861587 29.4003315,25.8018935 C29.4127642,25.8132277 29.4251969,25.8245619 29.4343141,25.8389186 L29.3845835,25.8880334 C29.3878989,25.8963452 29.541235,25.7671353 29.5544965,25.8321181 C29.599254,25.9107018 29.6730211,25.9756846 29.6995441,26.058802 C29.6589308,26.0746699 29.6274347,26.0701362 29.599254,26.0671138 C29.6009117,26.0776923 29.6174886,26.0867597 29.5934521,26.1079169 C29.6547866,26.0603132 29.6564443,26.1162286 29.678823,26.0905378 C29.875259,26.0852485 29.7467882,26.2152139 29.8760879,26.2446829 C29.954828,26.2318374 30.6435972,26.1479644 31.3514298,26.1577873 C32.0551181,26.1577873 32.7604642,26.2514834 32.8574389,26.2484609 C32.8574389,26.3217554 32.85661,26.3958055 32.8416908,26.4177183 C32.8864484,26.3995836 32.9021964,26.252239 32.8715292,26.1751664 L32.7679237,26.1691215 C32.7173643,25.998353 32.830087,26.1237847 32.798591,25.9530162 C32.8823042,25.9333702 32.9237464,26.0928046 32.936179,26.2356155 C32.9411521,26.1071613 32.9875673,25.9703953 32.8847907,25.9288365 C32.9005387,25.8034048 32.9900539,25.9303478 33,25.7762027 C32.9602155,25.6719281 32.8425197,25.554808 32.85661,25.4255982 L32.8715292,25.4240869 C32.8624119,25.1097519 32.5988396,25.0311681 32.5499378,24.7614142 L32.5897223,24.7757708 C32.5897223,24.6669625 32.4314132,24.5309522 32.3733941,24.3601836 C32.3883133,24.4108097 32.3601326,24.4757924 32.2921674,24.3941862 C32.2159138,24.2037717 32.0841276,24.1251879 32.0327393,23.9770877 L31.870286,23.9241948 C31.6398674,23.6635082 30.9013676,23.1051101 29.9954414,22.9116731 C29.0969747,22.6880116 28.1910485,22.8557578 27.8470783,22.9585211 L27.8711148,22.9403864 C27.3373394,23.0763968 26.5507667,23.4338018 26.0020721,24.0239357 C25.4334853,24.5974461 25.1525073,25.3651491 25.1351015,25.8706543 C25.0223788,26.0142208 25.0273518,26.2363711 25,26.4003392 C25.037298,26.30891 25.0936593,26.342157 25.0878574,26.4116734 C25.1085785,26.9028219 25.1284708,26.4464316 25.2237878,26.930024 C25.2983838,27.2005335 25.4807294,27.8722736 25.91753,28.4170707 C26.32615,28.9800026 26.9502694,29.3638541 27.1864898,29.50062 C27.5006216,29.5308446 27.822213,29.7106805 28.1239121,29.7016131 L28.0899295,29.7205035 C28.2457522,29.7310821 28.7521757,29.8330898 29.276005,29.7907755 C29.8023208,29.7628178 30.3178616,29.5912936 30.4687111,29.4975976 L30.4173228,29.5028869 C30.6684625,29.3185173 30.6866971,29.4409266 30.9270617,29.3517642 C30.8325736,29.26638 31.0091173,29.0744542 31.0770825,29.0102271 L31.0928305,29.0336511 C31.2055533,28.9354214 31.3738085,28.6497996 31.5113966,28.4760086 L31.5602984,28.525879 C31.6390385,28.3445319 31.8711148,28.078556 31.9332781,27.9569023 C32.1197679,27.7173729 32.4355574,27.2912071 32.3949441,26.8627744 C32.480315,26.7841907 32.5582263,26.7003176 32.6311645,26.6111552 L32.61293,26.5695965 C32.61293,26.5695965 31.9863241,26.4373642 31.2867799,26.4177183 C30.5888935,26.389005 29.81724,26.4434091 29.546208,26.4675887 L29.4732698,26.4607882 C29.4757563,26.4675887 29.4823871,26.4736337 29.4823871,26.4804342 C29.440116,26.496302 29.5238293,26.5182148 29.4517199,26.506125 L29.466639,26.4789229 C29.440116,26.4978133 29.4053046,26.4774117 29.3663489,26.4675887 C29.3564028,26.4736337 29.3464567,26.4796786 29.3232491,26.4819454 C29.3506009,26.4887459 29.3530874,26.4834566 29.3696643,26.4834566 C29.3920431,26.4947908 29.4633237,26.5227485 29.4235392,26.5287934 C29.4111065,26.5461725 29.3066722,26.506125 29.2942395,26.5219929 C29.2080398,26.6020879 29.0911728,26.6043547 29.0406133,26.6504471 C29.0232076,26.6277787 29.0256942,26.6277787 29.0207211,26.6164445 C29.0198923,26.6504471 28.9991712,26.6519584 28.9908827,26.6829385 C28.9743058,26.656492 28.9593867,26.6179558 28.9486117,26.5922649 C28.9784501,26.6444022 28.8690427,26.6700931 28.8657273,26.6459135" id="Fill-28" fill="#8A79DF"></path>
            </g>
        </g>
    </g>
</svg>