<svg width="64" height="38" xmlns="http://www.w3.org/2000/svg" xmlns:xlink="http://www.w3.org/1999/xlink"><defs><path id="a" d="M.04122222.15735h5.61222222V.75H.04122222z"/><path id="c" d="M.73704478.4776H1.316v1H.73704478z"/><path id="e" d="M.8052.231325h.5108v.75H.8052z"/><path id="g" d="M0 0h37v25H0z"/></defs><g fill="none" fill-rule="evenodd"><g transform="rotate(90 -7.5 8.5)"><mask id="b" fill="#fff"><use xlink:href="#a"/></mask><path d="M.13566667.615975c-.04222223.0315-.07222223.07125-.09444445.11625l5.55222222-.01875c.04444445-.11025.05222223-.24975.06-.381-.09111111.1155-.14555555.237-.15333333.38175l-5.36555555.018C.13788889.695475.139.657225.13566666.615975" fill="#303030" mask="url(#b)"/></g><path fill="#303030" d="M2.501 23.502l.008-.004h-.018zM59.319 21.5099514c.11-.004.236-.01.362-.016-.12-.006-.244-.008-.362.016"/><path d="M21.4816878 22.3378021l.0427998-.2317114c.6583616-.0023171.1913403.2653095.800608.2096988.2379165-.326713 1.0108306.0347567 1.2210531-.1390268-.0050352.0254882.2933045.0359152.2731635.1378682.0918937-.1772592.3071515-.041708.4947153-.0868917.0679762-.0486594-.0503527-.0532937-.1007054-.1065873l.4305156-.062562c.1686816.0567693.2089638.1610394.0264352.1818934 1.1241242.062562 6.5231931.2328699 7.7354345.1448196-.1560934-.1343926-.5299622-.0440252-.6722086-.2548825.3197397-.1181728.4720566.0405495.6130442-.0834161.1233641.3139689.7036791.0753062.9466309.3927507l.0918937-.1772591.158611.1089043c1.408617-.1853691.3222573-.0903674 1.5710044-.0486594.7225614-.0278053 1.0662186-.2745779 1.4677814-.183052-.0604232-.0011585-.2190342-.1112214-.0314704-.1564051.0314704.1564051.497233-.11238.5891267.0463423.1825285-.0196955.7779493 0 .5765384-.2131745.1007055.1065872.6306677.1494538.3147045.2421384.1787521.0069513.3524689.0382323.4808683-.0092685l-.2291048-.0590864c.6042325-.031281.9327839.1343926 1.325535-.0590864l-.2228107-.0845746c.3612806-.0139027.6633969-.0301225.8043845.1807348l-.3700924.0660378c.5979383-.0057928.9604778-.0196955 1.4589696-.1320755l-.1787521-.0057928c.6357029-.2108573 3.9614992-.3857994 4.5481082-.6499503l-.2706458-.1645151.5047859-.1378682c-.0604232-.0023172-.2442106.5329361-.2933045.4796425 1.0788067-.0150613 6.6943923-.1425025 7.6913759-.0324396.4028217.091526.0717526.2606752.0679762.2861635.48968-.0614035.2114813-.1737835.6268912-.1598808.1145524.0301224-.0226588.1285998-.0868585.1529294.1825286-.0196954.3512102.0370739.3650572-.0405494-.227846-.0590864-.1309171-.2629924-.227846-.3939093l.53499747.0173783-.02265871.1285998c.11832886.0034757.30211623-.3522012.82830202-.2826878.88746645.0556107 1.85046196.010427 2.74296368.0405494-.01384699.0764648-.20141082.1228071-.38897466.1679908.11958768.0034756.30211624-.0162198.41163338.0393909-.21525782-.1355511.37512766-.0903674.2064461-.1482953.65332636-.3139688 1.49925183-.0278053 2.07579032-.2398212.00377645-.0196955.01132936-.0567693.0855996-.11238v-3.8857994c-.11958768.7646474-1.14930052 4.7616683-1.14930052 5.0756372-.18001093-.0069514-.35750422-.0127441-.4128922-.0405495.04657626.0787819.39778638.1170142.58535021.0718305l.03272926-.1795763c.43051564-.0637206.10070542.1054287.52115052.0938431.02265871.1471367-.36505713.1784178-.70493789.193479.30589269.0162198.61178538.1239656.73640833-.0370738.28826924.0614035-.03147044.1795763.31596323.2421383.02265872-.0046342.04783507-.0092684.07552906-.0150612V15.5c-.2353989.0544522-.52366815.1633565-.78046695.0845746l.00503527-.0254882c-.68983208-.1517709-1.05614802.2236015-1.68681567.0729891l.06797616-.049818c-.22281073-.0845746-.66213809.0301225-1.06370093-.0602449.11455241.0289639.21399901.1355511-.02769398.1529295-.4632449-.0926846-.77920814 0-1.11657127-.1146971l-.32477496.1448195c-1.61002777-.0289639-7.97083347.1761007-9.58841417.1992718l.0641997-.0231711c-2.4647649.0729891-7.5252119.0614035-10.0718001.2595167-.3940099-.1413439-.9378191-.1077458-1.3494525-.1482953.2291048.060245.1510581.1610394-.027694.1540881-1.2525236-.0162198-.0843408.0984773-1.3507113.1587223-1.4589697.1320754-7.0405672-.0173784-8.3346318-.1390269-.6948673.2096988-1.5634515.0521351-2.2444719.183052l.0679762-.0486594c-.7313731.0764648-4.8703655-.122807-5.7200675-.0498179l.1132936.0301225c-.7414436.1285998-.6394793-.0996359-1.2235707-.1714664.0767878.2340284-.5589151.3661039-.8006081.3846408l.0088118-.052135c-.3562454.0335981-1.3582643.2571996-1.9864143.3417742l.0151058-.1297584c-.5450681.1737836-1.5357576.2178087-1.8945206.2722609-.8534784.0382324-2.0896373-.0405495-3.0400446.1737835-.2165167-.11238-.4254804-.2270771-.6256324-.3464085l-.0427998.0185369-.0226587.010427-.0113294.0034757-.0037764.0034757L7.5 16.7906322l.0289528 5.4104602h.0025176s.966772-3.7131745-.0025176-5.0582589l.0264352 4.7072162c.0944113.1204899.2152578.2212843.3600218.2965905l-.0239175.1285998.3335867-.0266468c.4015628.0475008.5715032-.1135386.5526209.0162198l-.5412916.010427c.400304.0196955.1258818.0996359-.0251763.1784177.1686815.0046343.3335867.0139027.469539.0463423.0742702-.0532936-.0616821-.0486594-.1258818-.0753062.2114814-.0556107.497233-.193479.752773-.154088.3927511-.0196955.0465762.2062231.503527.1807348 1.0939126-.0590864 2.181531-.1170142 3.259079-.1761006 1.014607-.0521351 1.7170272-.0220126 2.9317863-.0301225.0503527.0532936-.0100706.0521351-.0742703.0753062.6684322-.0544522 1.2625942-.0324396 1.8718619-.0892089.1686816.0579279.2152578.1367097.2656105.1900033-.0503527-.0532936.7905375-.0810989 1.65031-.0915259.4305156-.0023172.8648077-.0046343 1.1946179-.0057928.3310691.0023171.5576563.0069513.5715033.0139027" fill="#7660DC"/><g transform="rotate(90 7.5 43)"><mask id="d" fill="#fff"><use xlink:href="#c"/></mask><path d="M1.1577 1.4736c.125-.214.186-.627.147-.992-.072.292-.14.593-.147.992" fill="#303030" mask="url(#d)"/></g><g transform="rotate(90 7 43)"><mask id="f" fill="#fff"><use xlink:href="#e"/></mask><path fill="#303030" mask="url(#f)" d="M1.3062.60595l-.002-.0045.001.00975z"/></g><path d="M40.4971923 2.437c.008.05.004.04.002.126.002-.084.008-.074-.002-.126" fill="#7660DC"/><g transform="matrix(0 1 -1 0 63.988192 .5)"><mask id="h" fill="#fff"><use xlink:href="#g"/></mask><path d="M27.6816262 5.29136483l-.1794813.15737488c-.4944891-.34645117.0305241-.30456001-.4712909-.58760835-.3858236.12680565-.7777521-.58194738-1.0658989-.5627001.0207564-.01811509-.2246568-.19134067-.1465153-.26266886-.1831441.09170767-.2881468-.13699539-.4773957-.20492699-.0891302.00339658.0122096.07019599.0231982.14265636l-.4139057-.18567971c-.1172123-.13699539-.095235-.24568596.0818044-.16190365-.125759-.08265011-.3101241-.20266261-.5384438-.35097994l-.0903511-.05660967-.0463965-.02830483-.0231983-.01585071-.0122096-.00679316-.0024419-.00226438c.1916909-.29550247-.2661695.40306083-.2161101.32833607l.0036629-.00679316.0158725-.02604045.1294218-.2037948.064711-.09963302v-.00113219l-.002442-.00679316c-.0366288-.03170141-.0744786-.06679941-.1159912-.10302959-.1782603-.16303585-.3736141-.3407902-.5775146-.52646991-.1452943-.13133443-.2930306-.26606544-.4432088-.40192864-.2747162-.23096745-.5530953-.46533147-.8473469-.68044821C21.1690206.55087126 19.7881138.01421162 18.561048.0006253c-1.2258447-.0169829-2.1757523.31588194-2.6580319.52194113.2991354.04415555.8803128-.28418053 1.1647967-.09283985-.498152.21398454-.7667634.19360506-.9572333.37135942-.3113451-.23209964-1.0903181.43702663-1.5982379.4257047l-.0366288.23549622c-.1001188.0158507-.1916909.04755212-.2857049.07698914-.9120578.82989773-.9706639 1.00199112-1.061015 1.06765834-.0586062.05321308-.1367477.06453502-.6324578.58307957-.5042569.62836731-.499373 1.04841104-.8217067 1.32240184.0366288-.04755213.2258778-.11435153.1538411.06113844-.1538411-.06113844-.2002376.46193488-.3833817.44608418-.0903512.15737487-.4273364.60798783-.1282009.56383229-.1489573.02151167-.4664071.40419302-.3833818.11435152-.0988978.13359882-.2112262.24228938-.2344245.36343407l.1684926-.13812759c-.2783791.46533147-.5762935.60345906-.5518743.90688688.0463965-.01245413.1013397-.03849458.1599459-.07359257-.12698.20832358-.2087843.32833607-.4419879.2728586l.0744786-.19813384c-.19779564.26040447-.33210134.4257047-.48472146.73932226l.09035111-.08151792c-.05372228.21851331-.50547782.76875928-1.13183078 1.4469431-.30768215.33965801-.62879488.70082768-.89618532 1.04388227-.29303062.3634341-.47861668.6770516-.53233897.8400875l.33210138-.1256735-.24541315.5060904c.03907075-.0475521-.27349525-.5264699-.18802798-.538924-.19901663.2332318-.5970499.7359257-.97921067 1.3574998-.3907075.6215742-.75821673 1.334856-1.08787619 1.9654877-.58239836 1.1514406-1.36259239 2.219099-1.66416974 2.5417741-.27715813.2241742-.2625066-.0928399-.2844839-.1098228-.18802798.3645663.04883844.2377606-.17337645.515148-.08424631.0611384-.1001188-.0871789-.08668823-.1449208-.07692054.1358632-.21122624.2207777-.15262011.2739908.16727164-.1245412.29547254.0543453.45908131.0611385l-.2905887.3611696-.09889784-.088311c-.06593189.0815179.14651531.4053252-.19291183.7404544-.54210665.5955337-.9499076 1.358632-1.41631467 2.0039822-.05982709-.0520809-.00976769-.2162489.04273363-.3815491-.06104805.0871789-.13308474.234364-.23564546.2864449.21977297-.0792535-.09645591.3192785.03296594.2275709.00122096.0430233-.00244192.0849145-.00854672.1268056.17826029.1890763-.60559662.5457172-.9157207 1.200125.10133976.0951042.781415 1.2216366 1.8375462 1.9496369.13308474.0883111.27105332.1675646.41146383.2366284l.21000528.0973687c.04883844.023776.19779567.0769891.1282009.0498165-.09279303-.0396268-.20512144-.0634029-.27960005-.0747248-.08913015-.0260404-.16605069-.0203795-.16605069-.0203795-.09035111.0022644.00366288-.0056609.01709345-.0203795.00610481.0011322-.0561642.0226439-.06348997.0203795.02441922-.0033966.02441922-.0011322.05616421 0 .05860612-.0011322.10866552.0067932.14651531.0181151.00976769.0011322.01220961.0045288.03296594.0067932.31134504.0679316.37849789.1234091.43832498.134731.04029171.0158507.08302534.0339658.12087513.0498165.14407339.0713282.25762276.1279378.47739572.2377606-.23930834-.1177481-.38216077-.1890763-.51402455-.2547435-.07081573-.029437-.15017819-.0588741-.2344245-.0837823-.05250132-.0237761-.11110744-.0441555-.17337645-.0611385-.15872492-.0305692-.1904699-.0464199-.28204197-.0475521.218552-.0226438.89252244.2638011 1.28933474.4947685.13918954.0849145.2625066.1596393.40413807.245686 0 0 .03662882-.0045288.62146911.4211759.02930306.0237761-.03784979-.2117201.20023759-.2909737l.01709345.0203795c.17459742-.0905755.32233369-.2479503.48227957-.4596705.22465681-.2728586.37727693-.5457172.56652587-.8265012.0720367-.1358632.1501782-.2490825.2564018-.3385258l.01098865.0747248c.17826029-.1132193.28326293-.4902397.55065337-.7291325-.07936246.0656672-.21977296.0803857-.12209609-.1030296.29791447-.280784.35774155-.5638323.63367872-.725736l.04151268-.3034278c.41146383-.5502459 1.49934002-1.9711486 2.52128431-3.7203873.53478089-.925002.88763859-1.7164051 1.18555309-2.2621223.2942516-.5547748.5225713-.895565.6666446-1.0846413l-.0036628.0418912c.21611-.3034278.4480926-.5683611.9963041-1.0721871.5066988-.4732568 1.2038675-1.054072 1.9413279-1.8284923.3638463-.3849457.7289136-.8151792 1.0536892-1.2759819.3040193-.43476224.5103617-.77215586.7081574-1.0880378.3601835-.57402203.6910639-1.10162413.967001-1.54317954.3003564-.15171391.5164665-.44948076.7276927-.61704538-.1465153.07246038-.1941327-.02830483-.1098864-.11435152.2661694-.23549622-.0500594-.10076521.1318637-.33852582.0415127-.07472476.1550621-.17435777.3235547-.21964551.1721555-.05547747.3833817.03170142.5262342.16077146l.1050026.09623643.0476175.04981651c.0134305.01585071.0170934.02264387.1013397.09736863.2881468.26493324.564084.51741236.8192648.749512.3052402.26493324.6153643.52986649 1.0170605.78574218.1184332.07925354.2258777.15171391.3223336.21624893.0695948.0509487.1306429.09623644.1819232.13359882.5860613.10416179 1.0817714.62383854 1.6446344.85480598l-.0805834.00452877c.2832629.14265637 1.1196211.78460996 2.0780755 1.48430546.9877574.7064887 1.8607444 1.3042868 2.1806362 1.4843055l-.061048-.0792535c.5982708.2536113.3894865.3849457.7289136.7189428.1037817-.2196456.6117015-.0147186.7753102.0917076l-.0402917.0339658c.2673904.1449208.9120578.4053252 1.2746832.6917702l-.1074445.0781213c.3980332.1562427.8082761.6838448.9731058.8570704.3272175.4709924.4725119 1.1616303.6629818 1.4661904-.125759.0962364-.2136682.1788865-.3675092.228703l.0354078.0237761s.2905887.0226438.7411233.0860467c.4505346.0622706 1.0610151.1788865 1.6983567.298899 1.2588107.2230421 2.6934398.4732568 3.2208949-.6532756l.1355267.0294371c-.0073258-.1437886-.0366289-.2819162-.0573852-.4223081.001221-.5174124-.1977957-.7246038-.062269-.7110175.0402917.2275709.0647109.4630671.0891301.6951667-.029303-.5151479.0903511-.1709612.1916909.0249083-.0134306-.2196455-.0280821-.4347622-.0158725-.6170454-.0683738-.093972-.0427336.0860467-.0598271.1709612-.0756996-.2875771-.3186708-.5977981-.3516367-.9272663-.1526201-.4789178.2148891-.1143516 0-.6464824-.5762936-1.4242993-1.3980003-2.464785-2.2233699-3.3501602-.8351373-.88197859-1.7142291-1.60545014-2.623845-2.242875-.0073258-.07019598.0402917-.0339658.1074445-.01471851-.5799564-.35324433-1.0427006-.68497698-1.5567251-.96009996-.0988979-.13473101-.0830254-.21851332-.0903511-.28757711-.0622691.10642617-2.4529106-1.50581716-2.5041909-1.60318579" fill="#7660DC" mask="url(#h)"/></g></g></svg>