<svg height="39" width="86" xmlns="http://www.w3.org/2000/svg" xmlns:xlink="http://www.w3.org/1999/xlink"><mask id="a" fill="#fff"><path d="m.04339181.15735h5.90760234v.59265h-5.90760234z" fill="#fff" fill-rule="evenodd"/></mask><mask id="b" fill="#fff"><path d="m.77583661.4776h.60942655v1h-.60942655z" fill="#fff" fill-rule="evenodd"/></mask><mask id="c" fill="#fff"><path d="m.84757895.231325h.53768421v.75h-.53768421z" fill="#fff" fill-rule="evenodd"/></mask><mask id="d" fill="#fff"><path d="m0 0h38.9473684v25h-38.9473684z" fill="#fff" fill-rule="evenodd"/></mask><g fill="none" fill-rule="evenodd"><path d="m.14280702.615975c-.04444445.0315-.0760234.07125-.0994152.11625l5.84444444-.01875c.04678362-.11025.05497076-.24975.06315789-.381-.09590643.1155-.15321637.237-.16140351.38175l-5.64795321.018c.00350877-.03675.00467836-.075.00116959-.11625" fill="#303030" mask="url(#a)" transform="matrix(0 1 -1 0 22.5 16.315789)"/><path d="m24.001 24.2126316.008-.0042105h-.018zm56.818-2.0968932c.11-.0042106.236-.0105264.362-.0168421-.12-.0063158-.244-.0084211-.362.0168421" fill="#303030"/><path d="m21.6320452 22.9871601.0662186-.2439067c1.0185972-.0024391.2960359.2792731 1.2386766.2207355.3680972-.3439084 1.5639265.036586 1.8891765-.146344-.0077904.0268297.4537919.0378055.4226302.1451245.1421752-.1865886.4752156-.0439032.7654087-.091465.1051706-.0512204-.0779042-.0560986-.1558084-.1121971l.6660808-.0658548c.260979.0597571.3233024.1695151.0408997.1914667 1.739211.0658549 10.0924875.2451263 11.9680308.1524417-.241503-.1414659-.8199416-.0463422-1.0400209-.2682973.4946916-.1243924.7303517.0426836.9484834-.0878064.1908653.3304935 1.0887111.0792696 1.4645988.4134218l.1421751-.1865886.2453982.1146361c2.1793696-.1951253.4985868-.0951236 2.4306106-.0512204 1.1179251-.0292688 1.6496212-.2890294 2.2709071-.1926863-.093485-.0012195-.3388832-.1170752-.0486901-.164637.0486901.164637.7693038-.1182947.911479.0487814.2824027-.0207321 1.2036197 0 .8920029-.2243942.1558084.1121971.97575.1573198.4869012.2548825.2765599.0073172.5453293.0402446.743985-.0097563l-.3544641-.0621962c.9348503-.0329274 1.4431751.1414659 2.0508278-.0621962l-.3447261-.0890259c.5589626-.0146344 1.0263877-.0317079 1.2445194.1902472l-.5725957.0695134c.9251122-.0060977 1.4860223-.0207321 2.2572738-.1390268l-.2765599-.0060977c.9835404-.2219551 6.129112-.4061046 7.0366957-.6841582l-.418735-.1731738.7809895-.1451245c-.093485-.002439-.3778353.5609854-.4537919.5048869 1.6690972-.015854 10.3573617-.1500026 11.8998646-.034147.6232335.0963432.1110135.2743951.1051707.3012248.7576182-.0646353.3271976-.18293.9699071-.1682956.1772321.0317079-.0350569.1353682-.1343847.1609784.2824027-.0207321.5433817.0390251.5648054-.0426837-.3525165-.0621962-.2025509-.2768341-.3525165-.4146413l.827732.018293-.0350569.1353682c.1830749.0036586.4674251-.3707382 1.2815239-.2975662 1.3730613.0585376 2.86297888.0109758 4.24383061.0426837-.02142366.0804892-.31161675.1292705-.60180985.1768323.18502244.0036586.46742512-.0170734.63686673.0414642-.3330404-.1426854.5803862-.0951236.31940717-.1561003 1.01080683-.3304936 2.31959718-.0292688 3.21160012-.2524434.00584282-.0207321.01752844-.0597572.13243712-.1182948v-4.0903151c-.18502244.804892-1.77816308 5.0122824-1.77816308 5.342776-.27850747-.0073172-.55311973-.0134149-.63881433-.0426837.07206137.0829283.61544308.1231729.90563618.0756111l.05063772-.1890277c.6660808-.0670744.15580837.1109775.80630834.0987822.03505688.1548807-.56480536.1878081-1.09065863.2036621.47326794.0170734.94653588.1304901 1.13934874-.0390251.44600148.0646353-.04869011.1890277.48884878.2548825.03505688-.0048781.07400898-.0097563.11685628-.0158539v-7.2891514c-.36420208.0573181-.81020355.1719542-1.2075149.0890259l.00779041-.0268297c-1.06728736-.1597589-1.63404032.2353699-2.60979027.0768306l.10517065-.0524399c-.34472603-.089026-1.02444006.0317078-1.64572596-.0634158.17723203.0304884.3310928.1426854-.0428473.1609784-.71671853-.0975626-1.20556733 0-1.72752533-.1207338l-.502482.1524417c-2.4909864-.0304883-12.3322329.1853691-14.8349049.2097598l.0993278-.0243907c-3.8134099.0768306-11.6427808.0646353-15.582785.2731755-.6096003-.1487831-1.4509655-.1134166-2.0878323-.1561003.3544641.0634157.2337126.1695151-.0428473.1621979-1.9378666-.0170734-.1304895.1036604-2.0897798.1670761-2.2572738.1390268-10.892953-.018293-12.8950906-.146344-1.0750778.2207356-2.418925.054879-3.4725792.1926863l.1051707-.0512204c-1.1315583.0804892-7.5352825-.1292706-8.8499157-.0524399l.1752844.0317078c-1.1471391.1353682-.9893831-.1048799-1.8930717-.1804909.1188039.2463457-.8647365.3853725-1.2386766.4048851l.0136332-.054879c-.5511721.0353664-2.1014654.2707364-3.0733202.3597623l.0233713-.1365877c-.8433128.18293-2.3760777.2292723-2.931145.2865904-1.320476.0402446-3.2330238-.0426837-4.7034654.18293-.334988-.1182948-.6582903-.2390286-.9679595-.3646405l-.0662185.0195125-.0350569.0109758-.0175285.0036586-.0058428.0036586-.0058428.0012195.0447949 5.6952212h.0038952s1.4957604-3.9086047-.0038952-5.324483l.0408997 4.9549644c.1460704.1268315.3330404.2329309.5570149.3122005l-.0370044.1353682.5161152-.0280492c.6212859.0500009.8842125-.1195143.8549985.0170734l-.8374701.0109758c.6193383.0207321.1947605.1048799-.0389521.1878082.2609791.0048781.5161153.0146344.7264566.0487813.1149087-.0560985-.0954326-.0512204-.1947605-.0792696.3271976-.0585376.7693039-.2036621 1.1646676-.162198.6076527-.0207321.0720614.217077.7790419.1902472 1.6924685-.0621962 3.3751989-.1231728 5.0423485-.1853691 1.5697694-.054879 2.6565328-.0231711 4.5359713-.0317078.0779042.0560985-.0155808.054879-.1149086.0792697 1.034178-.0573181 1.9534475-.034147 2.8960881-.0939041.2609791.0609767.3330404.1439049.4109446.2000035-.0779042-.0560986 1.2230958-.0853674 2.5533098-.0963432.6660808-.002439 1.3380044-.0048781 1.8482768-.0060976.51222.002439.8627889.0073172.8842125.0146344" fill="#7660dc"/><path d="m1.21863158 1.4736c.13157895-.214.19578947-.627.15473684-.992-.07578947.292-.14736842.593-.15473684.992" fill="#303030" mask="url(#b)" transform="matrix(0 1 -1 0 72 36.842105)"/><path d="m1.37494737.60595-.00210526-.0045.00105263.00975z" fill="#303030" mask="url(#c)" transform="matrix(0 1 -1 0 71.5 37.368421)"/><g fill="#7660dc"><path d="m61.9971923 2.03894737c.008.05263158.004.04210526.002.13263158.002-.08842106.008-.07789474-.002-.13263158"/><path d="m29.1385539 5.29136483-.1889277.15737488c-.5205149-.34645117.0321306-.30456001-.4960957-.58760835-.4061301.12680565-.8186864-.58194738-1.1219988-.5627001.0218488-.01811509-.2364808-.19134067-.1542266-.26266886-.1927833.09170767-.3033124-.13699539-.5025219-.20492699-.0938212.00339658.0128523.07019599.0244193.14265636l-.4356903-.18567971c-.1233813-.13699539-.1002473-.24568596.0861099-.16190365-.1323779-.08265011-.3264464-.20266261-.5667829-.35097994l-.0951065-.05660967-.0488384-.02830483-.0244192-.01585071-.0128522-.00679316-.0025705-.00226438c.2017799-.29550247-.2801784.40306083-.2274843.32833607l.0038557-.00679316.0167079-.02604045.1362335-.2037948.0681168-.09963302v-.00113219l-.0025705-.00679316c-.0385566-.03170141-.0783985-.06679941-.1220961-.10302959-.1876424-.16303585-.3932779-.3407902-.60791-.52646991-.1529414-.13133443-.3084533-.26606544-.4665356-.40192864-.2891749-.23096745-.5822056-.46533147-.8919441-.68044821-1.2222461-.8865074-2.6758322-1.42316704-3.9674804-1.43675336-1.2903629-.0169829-2.2902656.31588194-2.7979283.52194113.3148793.04415555.926645-.28418053 1.2261018-.09283985-.5243706.21398454-.8071195.19360506-1.0076141.37135942-.3277316-.23209964-1.1477033.43702663-1.6823556.4257047l-.0385567.23549622c-.1053882.0158507-.2017799.04755212-.300742.07698914-.9600608.82989773-1.0217515 1.00199112-1.1168579 1.06765834-.0616907.05321308-.1439449.06453502-.665745.58307957-.5307967.62836731-.5256558 1.04841104-.8649544 1.32240184.0385566-.04755213.237766-.11435153.1619379.06113844-.1619379-.06113844-.2107764.46193488-.4035597.44608418-.0951064.15737487-.4498277.60798783-.1349483.56383229-.1567971.02151167-.4909548.40419302-.4035597.11435152-.104103.13359882-.2223434.24228938-.2467626.36343407l.1773606-.13812759c-.2930306.46533147-.6066248.60345906-.5809204.90688688.0488385-.01245413.1066735-.03849458.1683641-.07359257-.1336631.20832358-.2197729.32833607-.4652504.2728586l.0783986-.19813384c-.208206.26040447-.3495804.4257047-.5102332.73932226l.0951065-.08151792c-.0565498.21851331-.53208194.76875928-1.19140085 1.4469431-.32387595.33965801-.66188934.70082768-.94335297 1.04388227-.30845328.3634341-.50380703.6770516-.5603568.8400875l.34958039-.1256735-.25832963.5060904c.04112711-.0475521-.28788973-.5264699-.19792419-.538924-.20949119.2332318-.62847357.7359257-1.03074807 1.3574998-.41127105.6215742-.79812288 1.334856-1.14513283 1.9654877-.61305091 1.1514406-1.43430778 2.219099-1.75175763 2.5417741-.2917454.2241742-.27632273-.0928399-.29945673-.1098228-.19792419.3645663.05140888.2377606-.18250153.515148-.08868032.0611384-.1053882-.0871789-.09125076-.1449208-.08096899.1358632-.22234341.2207777-.16065276.2739908.17607542-.1245412.31102374.0543453.48324349.0611385l-.30588285.3611696-.10410298-.088311c-.06940199.0815179.15422664.4053252-.20306508.7404544-.57063858.5955337-.99990274 1.358632-1.49085756 2.0039822-.06297588-.0520809-.01028177-.2162489.04498277-.3815491-.0642611.0871789-.1400892.234364-.24804785.2864449.23133997-.0792535-.10153254.3192785.034701.2275709.00128522.0430233-.00257045.0849145-.00899656.1268056.18764242.1890763-.63747012.5457172-.96391652 1.200125.10667343.0951042.8225421 1.2216366 1.93425916 1.9496369.1400892.0883111.28531929.1675646.43311982.2366284l.22105819.0973687c.05140888.023776.20820597.0769891.13494831.0498165-.09767687-.0396268-.2159173-.0634029-.29431584-.0747248-.09382121-.0260404-.1747902-.0203795-.1747902-.0203795-.09510643.0022644.00385567-.0056609.01799311-.0203795.00642611.0011322-.05912021.0226439-.06683155.0203795.02570445-.0033966.02570445-.0011322.05912022 0 .06169066-.0011322.11438476.0067932.15422664.0181151.01028178.0011322.01285222.0045288.034701.0067932.32773161.0679316.39841883.1234091.46139471.134731.04241232.0158507.08739509.0339658.12723698.0498165.1516562.0713282.27118185.1279378.50252181.2377606-.25190352-.1177481-.40227449-.1890763-.54107847-.2547435-.07454288-.029437-.15808231-.0588741-.24676263-.0837823-.05526455-.0237761-.11695521-.0441555-.18250153-.0611385-.16707887-.0305692-.20049464-.0464199-.29688629-.0475521.23005474-.0226438.9394973.2638011 1.35719446.4947685.14651531.0849145.27632274.1596393.4254085.245686 0 0 .03855666-.0045288.65417801.4211759.03084533.0237761-.03984188-.2117201.21077641-.2909737l.01799311.0203795c.18378675-.0905755.33929862-.2479503.5076627-.4596705.23648086-.2728586.39713361-.5457172.59634302-.8265012.0758281-.1358632.15808231-.2490825.26989663-.3385258l.011567.0747248c.18764242-.1132193.29817151-.4902397.57963514-.7291325-.08353944.0656672-.23133997.0803857-.12852221-.1030296.31359418-.280784.37657006-.5638323.66703024-.725736l.04369755-.3034278c.43311982-.5502459 1.57825265-1.9711486 2.6539835-3.7203873.5629272-.925002.9343564-1.7164051 1.2479506-2.2621223.3097385-.5547748.550075-.895565.7017312-1.0846413l-.0038557.0418912c.2274843-.3034278.4716765-.5683611 1.0487412-1.0721871.5333672-.4732568 1.2672289-1.054072 2.043503-1.8284923.3829962-.3849457.7672776-.8151792 1.1091467-1.2759819.3200202-.43476224.5372228-.77215586.7454287-1.0880378.3791405-.57402203.7274357-1.10162413 1.0178959-1.54317954.3161646-.15171391.5436489-.44948076.7659923-.61704538-.1542266.07246038-.2043503-.02830483-.11567-.11435152.2801784-.23549622-.0526941-.10076521.138804-.33852582.0436976-.07472476.1632232-.17435777.3405839-.21964551.1812163-.05547747.4035597.03170142.5539306.16077146l.1105291.09623643.0501237.04981651c.0141374.01585071.0179931.02264387.1066734.09736863.3033124.26493324.5937726.51741236.862384.749512.3213055.26493324.6477519.52986649 1.07059.78574218.1246665.07925354.237766.15171391.3392986.21624893.0732576.0509487.1375187.09623644.1914981.13359882.6169065.10416179 1.1387067.62383854 1.731194.85480598l-.0848246.00452877c.2981715.14265637 1.1785486.78460996 2.1874479 1.48430546 1.0397446.7064887 1.9586784 1.3042868 2.2954065 1.4843055l-.0642611-.0792535c.6297588.2536113.4099859.3849457.7672776.7189428.1092439-.2196456.6438962-.0147186.816116.0917076l-.0424124.0339658c.2814637.1449208.9600609.4053252 1.3417718.6917702l-.1130995.0781213c.4189824.1562427.850817.6838448 1.024322.8570704.3444395.4709924.4973809 1.1616303.6978755 1.4661904-.1323778.0962364-.2249138.1788865-.3868518.228703l.0372714.0237761s.3058829.0226438.7801298.0860467c.4742469.0622706 1.116858.1788865 1.7877439.298899 1.3250639.2230421 2.8351998.4732568 3.3904157-.6532756l.1426596.0294371c-.0077113-.1437886-.0385566-.2819162-.0604054-.4223081.0012852-.5174124-.208206-.7246038-.0655463-.7110175.0424123.2275709.0681167.4630671.0938212.6951667-.0308454-.5151479.0951064-.1709612.2017798.0249083-.0141374-.2196455-.0295601-.4347622-.0167079-.6170454-.0719724-.093972-.0449827.0860467-.0629758.1709612-.0796838-.2875771-.335443-.5977981-.370144-.9272663-.1606527-.4789178.2261991-.1143516 0-.6464824-.6066248-1.4242993-1.4715792-2.464785-2.3403893-3.3501602-.8790919-.88197859-1.8044517-1.60545014-2.7619422-2.242875-.0077113-.07019598.0424124-.0339658.1130996-.01471851-.6104805-.35324433-1.0975796-.68497698-1.6386581-.96009996-.104103-.13473101-.0873951-.21851332-.0951064-.28757711-.0655464.10642617-2.5820111-1.50581716-2.6359904-1.60318579" mask="url(#d)" transform="matrix(0 1 -1 0 85.488192 0)"/></g></g></svg>